%TF.GenerationSoftware,KiCad,Pcbnew,9.0.2*%
%TF.CreationDate,2025-06-02T21:33:08+02:00*%
%TF.ProjectId,transmitter_board,7472616e-736d-4697-9474-65725f626f61,rev?*%
%TF.SameCoordinates,Original*%
%TF.FileFunction,Legend,Top*%
%TF.FilePolarity,Positive*%
%FSLAX46Y46*%
G04 Gerber Fmt 4.6, Leading zero omitted, Abs format (unit mm)*
G04 Created by KiCad (PCBNEW 9.0.2) date 2025-06-02 21:33:08*
%MOMM*%
%LPD*%
G01*
G04 APERTURE LIST*
%ADD10C,0.150000*%
%ADD11C,0.120000*%
G04 APERTURE END LIST*
D10*
X53824819Y-32356666D02*
X53348628Y-32689999D01*
X53824819Y-32928094D02*
X52824819Y-32928094D01*
X52824819Y-32928094D02*
X52824819Y-32547142D01*
X52824819Y-32547142D02*
X52872438Y-32451904D01*
X52872438Y-32451904D02*
X52920057Y-32404285D01*
X52920057Y-32404285D02*
X53015295Y-32356666D01*
X53015295Y-32356666D02*
X53158152Y-32356666D01*
X53158152Y-32356666D02*
X53253390Y-32404285D01*
X53253390Y-32404285D02*
X53301009Y-32451904D01*
X53301009Y-32451904D02*
X53348628Y-32547142D01*
X53348628Y-32547142D02*
X53348628Y-32928094D01*
X52824819Y-32023332D02*
X52824819Y-31404285D01*
X52824819Y-31404285D02*
X53205771Y-31737618D01*
X53205771Y-31737618D02*
X53205771Y-31594761D01*
X53205771Y-31594761D02*
X53253390Y-31499523D01*
X53253390Y-31499523D02*
X53301009Y-31451904D01*
X53301009Y-31451904D02*
X53396247Y-31404285D01*
X53396247Y-31404285D02*
X53634342Y-31404285D01*
X53634342Y-31404285D02*
X53729580Y-31451904D01*
X53729580Y-31451904D02*
X53777200Y-31499523D01*
X53777200Y-31499523D02*
X53824819Y-31594761D01*
X53824819Y-31594761D02*
X53824819Y-31880475D01*
X53824819Y-31880475D02*
X53777200Y-31975713D01*
X53777200Y-31975713D02*
X53729580Y-32023332D01*
X50174819Y-26516666D02*
X49698628Y-26849999D01*
X50174819Y-27088094D02*
X49174819Y-27088094D01*
X49174819Y-27088094D02*
X49174819Y-26707142D01*
X49174819Y-26707142D02*
X49222438Y-26611904D01*
X49222438Y-26611904D02*
X49270057Y-26564285D01*
X49270057Y-26564285D02*
X49365295Y-26516666D01*
X49365295Y-26516666D02*
X49508152Y-26516666D01*
X49508152Y-26516666D02*
X49603390Y-26564285D01*
X49603390Y-26564285D02*
X49651009Y-26611904D01*
X49651009Y-26611904D02*
X49698628Y-26707142D01*
X49698628Y-26707142D02*
X49698628Y-27088094D01*
X49270057Y-26135713D02*
X49222438Y-26088094D01*
X49222438Y-26088094D02*
X49174819Y-25992856D01*
X49174819Y-25992856D02*
X49174819Y-25754761D01*
X49174819Y-25754761D02*
X49222438Y-25659523D01*
X49222438Y-25659523D02*
X49270057Y-25611904D01*
X49270057Y-25611904D02*
X49365295Y-25564285D01*
X49365295Y-25564285D02*
X49460533Y-25564285D01*
X49460533Y-25564285D02*
X49603390Y-25611904D01*
X49603390Y-25611904D02*
X50174819Y-26183332D01*
X50174819Y-26183332D02*
X50174819Y-25564285D01*
X46174819Y-26516666D02*
X45698628Y-26849999D01*
X46174819Y-27088094D02*
X45174819Y-27088094D01*
X45174819Y-27088094D02*
X45174819Y-26707142D01*
X45174819Y-26707142D02*
X45222438Y-26611904D01*
X45222438Y-26611904D02*
X45270057Y-26564285D01*
X45270057Y-26564285D02*
X45365295Y-26516666D01*
X45365295Y-26516666D02*
X45508152Y-26516666D01*
X45508152Y-26516666D02*
X45603390Y-26564285D01*
X45603390Y-26564285D02*
X45651009Y-26611904D01*
X45651009Y-26611904D02*
X45698628Y-26707142D01*
X45698628Y-26707142D02*
X45698628Y-27088094D01*
X46174819Y-25564285D02*
X46174819Y-26135713D01*
X46174819Y-25849999D02*
X45174819Y-25849999D01*
X45174819Y-25849999D02*
X45317676Y-25945237D01*
X45317676Y-25945237D02*
X45412914Y-26040475D01*
X45412914Y-26040475D02*
X45460533Y-26135713D01*
X58904761Y-20370057D02*
X58809523Y-20322438D01*
X58809523Y-20322438D02*
X58714285Y-20227200D01*
X58714285Y-20227200D02*
X58571428Y-20084342D01*
X58571428Y-20084342D02*
X58476190Y-20036723D01*
X58476190Y-20036723D02*
X58380952Y-20036723D01*
X58428571Y-20274819D02*
X58333333Y-20227200D01*
X58333333Y-20227200D02*
X58238095Y-20131961D01*
X58238095Y-20131961D02*
X58190476Y-19941485D01*
X58190476Y-19941485D02*
X58190476Y-19608152D01*
X58190476Y-19608152D02*
X58238095Y-19417676D01*
X58238095Y-19417676D02*
X58333333Y-19322438D01*
X58333333Y-19322438D02*
X58428571Y-19274819D01*
X58428571Y-19274819D02*
X58619047Y-19274819D01*
X58619047Y-19274819D02*
X58714285Y-19322438D01*
X58714285Y-19322438D02*
X58809523Y-19417676D01*
X58809523Y-19417676D02*
X58857142Y-19608152D01*
X58857142Y-19608152D02*
X58857142Y-19941485D01*
X58857142Y-19941485D02*
X58809523Y-20131961D01*
X58809523Y-20131961D02*
X58714285Y-20227200D01*
X58714285Y-20227200D02*
X58619047Y-20274819D01*
X58619047Y-20274819D02*
X58428571Y-20274819D01*
X59809523Y-20274819D02*
X59238095Y-20274819D01*
X59523809Y-20274819D02*
X59523809Y-19274819D01*
X59523809Y-19274819D02*
X59428571Y-19417676D01*
X59428571Y-19417676D02*
X59333333Y-19512914D01*
X59333333Y-19512914D02*
X59238095Y-19560533D01*
X50666666Y-26834819D02*
X50666666Y-27549104D01*
X50666666Y-27549104D02*
X50619047Y-27691961D01*
X50619047Y-27691961D02*
X50523809Y-27787200D01*
X50523809Y-27787200D02*
X50380952Y-27834819D01*
X50380952Y-27834819D02*
X50285714Y-27834819D01*
X51666666Y-27834819D02*
X51095238Y-27834819D01*
X51380952Y-27834819D02*
X51380952Y-26834819D01*
X51380952Y-26834819D02*
X51285714Y-26977676D01*
X51285714Y-26977676D02*
X51190476Y-27072914D01*
X51190476Y-27072914D02*
X51095238Y-27120533D01*
X42634819Y-37878094D02*
X41634819Y-37878094D01*
X41634819Y-37878094D02*
X41634819Y-37639999D01*
X41634819Y-37639999D02*
X41682438Y-37497142D01*
X41682438Y-37497142D02*
X41777676Y-37401904D01*
X41777676Y-37401904D02*
X41872914Y-37354285D01*
X41872914Y-37354285D02*
X42063390Y-37306666D01*
X42063390Y-37306666D02*
X42206247Y-37306666D01*
X42206247Y-37306666D02*
X42396723Y-37354285D01*
X42396723Y-37354285D02*
X42491961Y-37401904D01*
X42491961Y-37401904D02*
X42587200Y-37497142D01*
X42587200Y-37497142D02*
X42634819Y-37639999D01*
X42634819Y-37639999D02*
X42634819Y-37878094D01*
X42634819Y-36354285D02*
X42634819Y-36925713D01*
X42634819Y-36639999D02*
X41634819Y-36639999D01*
X41634819Y-36639999D02*
X41777676Y-36735237D01*
X41777676Y-36735237D02*
X41872914Y-36830475D01*
X41872914Y-36830475D02*
X41920533Y-36925713D01*
D11*
%TO.C,R3*%
X52370000Y-28920000D02*
X52370000Y-35460000D01*
X52040000Y-28920000D02*
X52370000Y-28920000D01*
X49960000Y-28920000D02*
X49630000Y-28920000D01*
X49630000Y-28920000D02*
X49630000Y-35460000D01*
X52370000Y-35460000D02*
X52040000Y-35460000D01*
X49630000Y-35460000D02*
X49960000Y-35460000D01*
%TO.C,R2*%
X47000000Y-21040000D02*
X47000000Y-21730000D01*
X47000000Y-31660000D02*
X47000000Y-30970000D01*
X48720000Y-21730000D02*
X45280000Y-21730000D01*
X45280000Y-30970000D01*
X48720000Y-30970000D01*
X48720000Y-21730000D01*
%TO.C,R1*%
X43000000Y-21040000D02*
X43000000Y-21730000D01*
X43000000Y-31660000D02*
X43000000Y-30970000D01*
X44720000Y-21730000D02*
X41280000Y-21730000D01*
X41280000Y-30970000D01*
X44720000Y-30970000D01*
X44720000Y-21730000D01*
%TO.C,Q1*%
X53890000Y-20660000D02*
X64110000Y-20660000D01*
X53890000Y-36530000D02*
X53890000Y-20660000D01*
X53890000Y-36530000D02*
X64110000Y-36530000D01*
X55975000Y-36530000D02*
X55975000Y-38970000D01*
X56945000Y-36530000D02*
X56945000Y-38970000D01*
X58515000Y-36530000D02*
X58515000Y-38970000D01*
X59485000Y-36530000D02*
X59485000Y-38970000D01*
X61055000Y-36530000D02*
X61055000Y-38970000D01*
X62025000Y-36530000D02*
X62025000Y-38970000D01*
X64110000Y-36530000D02*
X64110000Y-20660000D01*
%TO.C,J1*%
X52380000Y-26380000D02*
X51000000Y-26380000D01*
X52380000Y-25000000D02*
X52380000Y-26380000D01*
X52380000Y-23730000D02*
X52380000Y-18540000D01*
X52380000Y-23730000D02*
X49620000Y-23730000D01*
X52380000Y-18540000D02*
X49620000Y-18540000D01*
X49620000Y-23730000D02*
X49620000Y-18540000D01*
%TO.C,D1*%
X43030000Y-39790000D02*
X43580000Y-39790000D01*
X48330000Y-39790000D02*
X47830000Y-39790000D01*
X43030000Y-35640000D02*
X43030000Y-39790000D01*
X48330000Y-35640000D02*
X48330000Y-39790000D01*
%TD*%
M02*
