%TF.GenerationSoftware,KiCad,Pcbnew,9.0.2*%
%TF.CreationDate,2025-06-02T21:33:08+02:00*%
%TF.ProjectId,transmitter_board,7472616e-736d-4697-9474-65725f626f61,rev?*%
%TF.SameCoordinates,Original*%
%TF.FileFunction,Copper,L1,Top*%
%TF.FilePolarity,Positive*%
%FSLAX46Y46*%
G04 Gerber Fmt 4.6, Leading zero omitted, Abs format (unit mm)*
G04 Created by KiCad (PCBNEW 9.0.2) date 2025-06-02 21:33:08*
%MOMM*%
%LPD*%
G01*
G04 APERTURE LIST*
%TA.AperFunction,ComponentPad*%
%ADD10C,1.600000*%
%TD*%
%TA.AperFunction,ComponentPad*%
%ADD11R,1.905000X2.000000*%
%TD*%
%TA.AperFunction,ComponentPad*%
%ADD12O,1.905000X2.000000*%
%TD*%
%TA.AperFunction,ComponentPad*%
%ADD13R,1.700000X1.700000*%
%TD*%
%TA.AperFunction,ComponentPad*%
%ADD14C,1.700000*%
%TD*%
%TA.AperFunction,SMDPad,CuDef*%
%ADD15R,4.780000X0.500000*%
%TD*%
%TA.AperFunction,SMDPad,CuDef*%
%ADD16R,4.780000X2.780000*%
%TD*%
%TA.AperFunction,Conductor*%
%ADD17C,0.200000*%
%TD*%
G04 APERTURE END LIST*
D10*
%TO.P,R3,1*%
%TO.N,SGN*%
X51000000Y-28380000D03*
%TO.P,R3,2*%
%TO.N,Net-(Q1-G)*%
X51000000Y-36000000D03*
%TD*%
%TO.P,R2,1*%
%TO.N,VCC*%
X47000000Y-20000000D03*
%TO.P,R2,2*%
%TO.N,Net-(D1-A)*%
X47000000Y-32700000D03*
%TD*%
%TO.P,R1,1*%
%TO.N,VCC*%
X43000000Y-20000000D03*
%TO.P,R1,2*%
%TO.N,Net-(D1-A)*%
X43000000Y-32700000D03*
%TD*%
D11*
%TO.P,Q1,1,D*%
%TO.N,Net-(D1-K)*%
X56460000Y-40230000D03*
D12*
%TO.P,Q1,2,G*%
%TO.N,Net-(Q1-G)*%
X59000000Y-40230000D03*
%TO.P,Q1,3,S*%
%TO.N,GND*%
X61540000Y-40230000D03*
%TD*%
D13*
%TO.P,J1,1,Pin_1*%
%TO.N,GND*%
X51000000Y-25000000D03*
D14*
%TO.P,J1,2,Pin_2*%
%TO.N,SGN*%
X51000000Y-22460000D03*
%TO.P,J1,3,Pin_3*%
%TO.N,VCC*%
X51000000Y-19920000D03*
%TD*%
D15*
%TO.P,D1,1,K*%
%TO.N,Net-(D1-K)*%
X45680000Y-39280000D03*
%TO.P,D1,2,A*%
%TO.N,Net-(D1-A)*%
X45680000Y-35000000D03*
D16*
%TO.P,D1,3*%
%TO.N,N/C*%
X45680000Y-37140000D03*
%TD*%
D17*
%TO.N,SGN*%
X49849000Y-23611000D02*
X49849000Y-27229000D01*
X49849000Y-27229000D02*
X51000000Y-28380000D01*
X51000000Y-22460000D02*
X49849000Y-23611000D01*
%TO.N,Net-(Q1-G)*%
X57171000Y-38401000D02*
X59000000Y-40230000D01*
X53401000Y-38401000D02*
X57171000Y-38401000D01*
X51000000Y-36000000D02*
X53401000Y-38401000D01*
%TO.N,Net-(D1-K)*%
X55510000Y-39280000D02*
X56460000Y-40230000D01*
X45680000Y-39280000D02*
X55510000Y-39280000D01*
%TO.N,Net-(D1-A)*%
X47000000Y-32700000D02*
X45680000Y-34020000D01*
X45680000Y-34020000D02*
X45680000Y-35000000D01*
X43000000Y-32700000D02*
X47000000Y-32700000D01*
%TO.N,VCC*%
X47000000Y-20000000D02*
X43000000Y-20000000D01*
X47080000Y-19920000D02*
X47000000Y-20000000D01*
X51000000Y-19920000D02*
X47080000Y-19920000D01*
%TO.N,GND*%
X53000000Y-37000000D02*
X54000000Y-38000000D01*
X53000000Y-26000000D02*
X53000000Y-37000000D01*
X60000000Y-38000000D02*
X61540000Y-39540000D01*
X54000000Y-38000000D02*
X60000000Y-38000000D01*
X52000000Y-26000000D02*
X53000000Y-26000000D01*
X51000000Y-25000000D02*
X52000000Y-26000000D01*
X61540000Y-39540000D02*
X61540000Y-40230000D01*
%TD*%
M02*
