%TF.GenerationSoftware,KiCad,Pcbnew,9.0.2*%
%TF.CreationDate,2025-06-02T23:01:04+02:00*%
%TF.ProjectId,receiver_board,72656365-6976-4657-925f-626f6172642e,rev?*%
%TF.SameCoordinates,Original*%
%TF.FileFunction,Copper,L1,Top*%
%TF.FilePolarity,Positive*%
%FSLAX46Y46*%
G04 Gerber Fmt 4.6, Leading zero omitted, Abs format (unit mm)*
G04 Created by KiCad (PCBNEW 9.0.2) date 2025-06-02 23:01:04*
%MOMM*%
%LPD*%
G01*
G04 APERTURE LIST*
G04 Aperture macros list*
%AMRoundRect*
0 Rectangle with rounded corners*
0 $1 Rounding radius*
0 $2 $3 $4 $5 $6 $7 $8 $9 X,Y pos of 4 corners*
0 Add a 4 corners polygon primitive as box body*
4,1,4,$2,$3,$4,$5,$6,$7,$8,$9,$2,$3,0*
0 Add four circle primitives for the rounded corners*
1,1,$1+$1,$2,$3*
1,1,$1+$1,$4,$5*
1,1,$1+$1,$6,$7*
1,1,$1+$1,$8,$9*
0 Add four rect primitives between the rounded corners*
20,1,$1+$1,$2,$3,$4,$5,0*
20,1,$1+$1,$4,$5,$6,$7,0*
20,1,$1+$1,$6,$7,$8,$9,0*
20,1,$1+$1,$8,$9,$2,$3,0*%
G04 Aperture macros list end*
%TA.AperFunction,SMDPad,CuDef*%
%ADD10RoundRect,0.150000X0.512500X0.150000X-0.512500X0.150000X-0.512500X-0.150000X0.512500X-0.150000X0*%
%TD*%
%TA.AperFunction,ComponentPad*%
%ADD11C,3.000000*%
%TD*%
%TA.AperFunction,ComponentPad*%
%ADD12R,1.700000X1.700000*%
%TD*%
%TA.AperFunction,ComponentPad*%
%ADD13C,1.700000*%
%TD*%
%TA.AperFunction,ViaPad*%
%ADD14C,0.600000*%
%TD*%
%TA.AperFunction,Conductor*%
%ADD15C,0.200000*%
%TD*%
G04 APERTURE END LIST*
D10*
%TO.P,U1,5,V+*%
%TO.N,5V*%
X38862500Y-36835000D03*
%TO.P,U1,4*%
%TO.N,SGN*%
X38862500Y-34935000D03*
%TO.P,U1,3,-*%
%TO.N,1V*%
X41137500Y-34935000D03*
%TO.P,U1,2,V-*%
%TO.N,GND*%
X41137500Y-35885000D03*
%TO.P,U1,1,+*%
%TO.N,Net-(SC2-+)*%
X41137500Y-36835000D03*
%TD*%
D11*
%TO.P,SC2,1,+*%
%TO.N,Net-(SC2-+)*%
X45500000Y-35000000D03*
%TO.P,SC2,2,-*%
%TO.N,GND*%
X50000000Y-35000000D03*
%TD*%
D12*
%TO.P,J1,1,Pin_1*%
%TO.N,SGN*%
X34540000Y-36500000D03*
D13*
%TO.P,J1,2,Pin_2*%
%TO.N,5V*%
X32000000Y-36500000D03*
%TO.P,J1,3,Pin_3*%
%TO.N,1V*%
X29460000Y-36500000D03*
%TO.P,J1,4,Pin_4*%
%TO.N,GND*%
X26920000Y-36500000D03*
%TD*%
D14*
%TO.N,GND*%
X43000000Y-36000000D03*
X44500000Y-37000000D03*
%TD*%
D15*
%TO.N,GND*%
X43000000Y-36000000D02*
X43000000Y-33885000D01*
X43000000Y-33885000D02*
X42976500Y-33861500D01*
X48000000Y-37000000D02*
X44500000Y-37000000D01*
X50000000Y-35000000D02*
X48000000Y-37000000D01*
%TO.N,Net-(SC2-+)*%
X43665000Y-36835000D02*
X45500000Y-35000000D01*
X41137500Y-36835000D02*
X43665000Y-36835000D01*
%TO.N,GND*%
X42101000Y-34737001D02*
X42101000Y-35583999D01*
%TO.N,1V*%
X40536500Y-34334000D02*
X31626000Y-34334000D01*
X41137500Y-34935000D02*
X40536500Y-34334000D01*
X31626000Y-34334000D02*
X29460000Y-36500000D01*
%TO.N,GND*%
X41799999Y-35885000D02*
X41137500Y-35885000D01*
%TO.N,SGN*%
X38862500Y-34935000D02*
X36105000Y-34935000D01*
%TO.N,GND*%
X42101000Y-35583999D02*
X41799999Y-35885000D01*
%TO.N,5V*%
X38862500Y-36835000D02*
X38046500Y-37651000D01*
%TO.N,SGN*%
X36105000Y-34935000D02*
X34540000Y-36500000D01*
%TO.N,GND*%
X26920000Y-36500000D02*
X29558500Y-33861500D01*
%TO.N,5V*%
X33151000Y-37651000D02*
X32000000Y-36500000D01*
X38046500Y-37651000D02*
X33151000Y-37651000D01*
%TO.N,GND*%
X29558500Y-33861500D02*
X42976500Y-33861500D01*
X42976500Y-33861500D02*
X42101000Y-34737001D01*
%TD*%
M02*
